<svg width="200" height="48" viewBox="0 0 200 48" fill="none" xmlns="http://www.w3.org/2000/svg">
<path fill-rule="evenodd" clip-rule="evenodd" d="M0 24C15.2548 24 24 15.2548 24 0C24 15.2548 32.7452 24 48 24C32.7452 24 24 32.7452 24 48C24 32.7452 15.2548 24 0 24Z" fill="url(#paint0_linear_14882_2279)"/>
<path d="M55.0653 16.9852V13.1819H72.9844V16.9852H66.3047V35.0001H61.745V16.9852H55.0653Z" fill="#181D27"/>
<path d="M74.1509 35.0001V18.6364H78.5508V21.4915H78.7212C79.0195 20.4759 79.5202 19.7089 80.2234 19.1904C80.9265 18.6648 81.7361 18.4021 82.6523 18.4021C82.8796 18.4021 83.1246 18.4163 83.3874 18.4447C83.6502 18.4731 83.881 18.5121 84.0799 18.5619V22.5888C83.8668 22.5249 83.5721 22.4681 83.1957 22.4184C82.8192 22.3687 82.4748 22.3438 82.1623 22.3438C81.4947 22.3438 80.8981 22.4894 80.3725 22.7806C79.854 23.0647 79.4421 23.4624 79.1367 23.9738C78.8384 24.4852 78.6893 25.0746 78.6893 25.7423V35.0001H74.1509Z" fill="#181D27"/>
<path d="M96.9199 28.0327V18.6364H101.458V35.0001H97.101V32.0278H96.9306C96.5613 32.9866 95.9469 33.7572 95.0875 34.3396C94.2353 34.9219 93.1948 35.2131 91.9661 35.2131C90.8723 35.2131 89.91 34.9646 89.079 34.4674C88.248 33.9702 87.5982 33.2636 87.1294 32.3474C86.6678 31.4312 86.4334 30.3339 86.4263 29.0555V18.6364H90.9647V28.2458C90.9718 29.2117 91.231 29.9752 91.7424 30.5363C92.2537 31.0974 92.9391 31.3779 93.7985 31.3779C94.3453 31.3779 94.8567 31.2536 95.3326 31.005C95.8084 30.7494 96.1919 30.3729 96.4831 29.8758C96.7814 29.3786 96.927 28.7643 96.9199 28.0327Z" fill="#181D27"/>
<path d="M118.703 23.3026L114.549 23.5583C114.478 23.2032 114.325 22.8836 114.091 22.5995C113.856 22.3083 113.547 22.0775 113.164 21.907C112.787 21.7295 112.336 21.6407 111.811 21.6407C111.108 21.6407 110.515 21.7898 110.032 22.0881C109.549 22.3793 109.307 22.77 109.307 23.26C109.307 23.6506 109.463 23.9809 109.776 24.2508C110.088 24.5207 110.625 24.7373 111.385 24.9006L114.346 25.4972C115.937 25.8239 117.123 26.3495 117.904 27.0739C118.686 27.7984 119.076 28.7501 119.076 29.929C119.076 31.0015 118.76 31.9425 118.128 32.7522C117.503 33.5619 116.644 34.194 115.55 34.6485C114.463 35.0959 113.21 35.3197 111.789 35.3197C109.623 35.3197 107.897 34.8687 106.612 33.9667C105.333 33.0576 104.584 31.8218 104.364 30.2593L108.828 30.0249C108.963 30.6854 109.289 31.1897 109.808 31.5377C110.326 31.8786 110.99 32.0491 111.8 32.0491C112.596 32.0491 113.235 31.8964 113.718 31.591C114.208 31.2785 114.456 30.8772 114.463 30.3871C114.456 29.9752 114.282 29.6379 113.941 29.3751C113.6 29.1052 113.075 28.8992 112.365 28.7572L109.531 28.1925C107.933 27.8729 106.743 27.319 105.962 26.5306C105.188 25.7423 104.801 24.7373 104.801 23.5157C104.801 22.4646 105.085 21.559 105.653 20.7991C106.228 20.0391 107.034 19.4532 108.071 19.0413C109.115 18.6293 110.337 18.4234 111.736 18.4234C113.803 18.4234 115.429 18.8602 116.615 19.7337C117.809 20.6073 118.505 21.7969 118.703 23.3026Z" fill="#181D27"/>
<path d="M130.638 18.6364V22.0455H120.784V18.6364H130.638ZM123.021 14.716H127.559V29.9717C127.559 30.3907 127.623 30.7174 127.751 30.9518C127.879 31.179 128.056 31.3388 128.284 31.4312C128.518 31.5235 128.788 31.5697 129.093 31.5697C129.306 31.5697 129.519 31.5519 129.732 31.5164C129.945 31.4738 130.109 31.4418 130.222 31.4205L130.936 34.7977C130.709 34.8687 130.389 34.9504 129.977 35.0427C129.566 35.1421 129.065 35.2025 128.475 35.2238C127.382 35.2664 126.423 35.1208 125.599 34.787C124.782 34.4532 124.146 33.9347 123.692 33.2316C123.237 32.5285 123.014 31.6407 123.021 30.5682V14.716Z" fill="#181D27"/>
<path d="M140.876 35.3197C139.193 35.3197 137.744 34.9788 136.529 34.2969C135.322 33.608 134.392 32.635 133.738 31.3779C133.085 30.1137 132.758 28.6187 132.758 26.8928C132.758 25.2096 133.085 23.7323 133.738 22.461C134.392 21.1897 135.311 20.1989 136.497 19.4887C137.691 18.7785 139.09 18.4234 140.695 18.4234C141.774 18.4234 142.779 18.5974 143.71 18.9454C144.647 19.2863 145.464 19.8012 146.16 20.4901C146.863 21.179 147.41 22.0455 147.801 23.0896C148.191 24.1265 148.387 25.341 148.387 26.733V27.9795H134.569V25.167H144.115C144.115 24.5136 143.972 23.9347 143.688 23.4305C143.404 22.9262 143.01 22.532 142.506 22.2479C142.009 21.9567 141.43 21.8111 140.769 21.8111C140.08 21.8111 139.47 21.9709 138.937 22.2905C138.411 22.603 137.999 23.0256 137.701 23.5583C137.403 24.0839 137.25 24.6698 137.243 25.3161V27.9901C137.243 28.7998 137.392 29.4994 137.691 30.0888C137.996 30.6783 138.426 31.1329 138.98 31.4525C139.534 31.7721 140.191 31.9319 140.95 31.9319C141.455 31.9319 141.916 31.8609 142.335 31.7188C142.754 31.5768 143.113 31.3637 143.411 31.0796C143.71 30.7955 143.937 30.4475 144.093 30.0356L148.291 30.3126C148.078 31.3211 147.641 32.2018 146.98 32.9546C146.327 33.7004 145.482 34.2827 144.445 34.7018C143.415 35.1137 142.225 35.3197 140.876 35.3197Z" fill="#181D27"/>
<path d="M157.378 35.2664C156.135 35.2664 155.009 34.9468 154.001 34.3076C152.999 33.6613 152.204 32.7131 151.615 31.4631C151.032 30.206 150.741 28.6648 150.741 26.8396C150.741 24.9646 151.043 23.4056 151.646 22.1627C152.25 20.9127 153.053 19.9788 154.054 19.3609C155.063 18.7359 156.167 18.4234 157.367 18.4234C158.284 18.4234 159.047 18.5796 159.658 18.8921C160.276 19.1975 160.773 19.581 161.149 20.0427C161.533 20.4972 161.824 20.9447 162.023 21.385H162.161V13.1819H166.689V35.0001H162.215V32.3793H162.023C161.81 32.8339 161.508 33.2849 161.117 33.7323C160.734 34.1727 160.233 34.5384 159.615 34.8296C159.004 35.1208 158.259 35.2664 157.378 35.2664ZM158.816 31.6549C159.548 31.6549 160.166 31.456 160.67 31.0583C161.181 30.6535 161.572 30.0888 161.842 29.3644C162.119 28.64 162.257 27.7913 162.257 26.8182C162.257 25.8452 162.122 25.0001 161.852 24.2827C161.583 23.5654 161.192 23.0114 160.681 22.6208C160.169 22.2302 159.548 22.0349 158.816 22.0349C158.07 22.0349 157.442 22.2373 156.931 22.6421C156.419 23.0469 156.032 23.608 155.769 24.3254C155.507 25.0427 155.375 25.8736 155.375 26.8182C155.375 27.77 155.507 28.6116 155.769 29.3431C156.039 30.0675 156.426 30.6357 156.931 31.0477C157.442 31.4525 158.07 31.6549 158.816 31.6549Z" fill="#181D27"/>
<path d="M174.266 35.0001H169.323L176.855 13.1819H182.8L190.321 35.0001H185.378L179.913 18.1677H179.742L174.266 35.0001ZM173.957 26.4241H185.634V30.0249H173.957V26.4241Z" fill="#181D27"/>
<path d="M197.56 13.1819V35.0001H192.947V13.1819H197.56Z" fill="#181D27"/>
<defs>
<linearGradient id="paint0_linear_14882_2279" x1="-0.000747503" y1="47.9997" x2="47.9994" y2="-0.000584423" gradientUnits="userSpaceOnUse">
<stop stop-color="#0017E4"/>
<stop offset="1" stop-color="#3793FF"/>
</linearGradient>
</defs>
</svg>
